Coordinates
version=1
nRows=8
nColumns=40
inDegrees=yes

Units are S.I. units (second, meters, Newtons, ...)
If the header above contains a line with 'inDegrees', this indicates whether rotational values are in degrees (yes) or radians (no).

endheader
time	pelvis_tilt	pelvis_list	pelvis_rotation	pelvis_tx	pelvis_ty	pelvis_tz	hip_flexion_r	hip_adduction_r	hip_rotation_r	knee_angle_r	knee_angle_r_beta	ankle_angle_r	subtalar_angle_r	mtp_angle_r	hip_flexion_l	hip_adduction_l	hip_rotation_l	knee_angle_l	knee_angle_l_beta	ankle_angle_l	subtalar_angle_l	mtp_angle_l	lumbar_extension	lumbar_bending	lumbar_rotation	arm_flex_r	arm_add_r	arm_rot_r	elbow_flex_r	pro_sup_r	wrist_flex_r	wrist_dev_r	arm_flex_l	arm_add_l	arm_rot_l	elbow_flex_l	pro_sup_l	wrist_flex_l	wrist_dev_l
     22.31500000	     15.71567945	     -1.05240441	      3.52782882	     -0.85190258	      0.57835299	      0.28649400	     45.00000012	     -9.99999999	      0.00000000	     60.00014062	      1.04720001	     -4.99999985	      0.00000000	      0.00000000	     45.00000012	     -9.99999999	      0.00000000	     60.00014062	      1.04720001	     -4.99999985	      0.00000000	      0.00000000	    -29.00935745	      2.91457317	     -2.09781683	     -2.21940829	    -31.66510685	     -0.74418796	    121.92335423	     87.97831446	      0.00000000	      0.00000000	     -0.30056277	    -28.60212960	     -5.44214856	    117.95812961	     89.38347509	      0.00000000	      0.00000000
     22.32000000	     15.76594968	     -0.94913274	      3.60692292	     -0.85187031	      0.57843999	      0.28628429	     45.00000012	     -9.99999999	      0.00000000	     60.00014062	      1.04720001	     -4.99999985	      0.00000000	      0.00000000	     45.00000012	     -9.99999999	      0.00000000	     60.00014062	      1.04720001	     -4.99999985	      0.00000000	      0.00000000	    -29.06313518	      2.86304815	     -2.21985524	     -2.22200138	    -31.65998036	     -0.74444320	    121.92326152	     87.85838858	      0.00000000	      0.00000000	     -0.31438365	    -28.64173670	     -5.41843527	    117.94719569	     89.39029577	      0.00000000	      0.00000000
     22.32500000	     15.81839721	     -1.07333815	      3.54346192	     -0.85190057	      0.57853734	      0.28649610	     45.00000012	     -9.99999999	      0.00000000	     60.00014062	      1.04720001	     -4.99999985	      0.00000000	      0.00000000	     45.00000012	     -9.99999999	      0.00000000	     60.00014062	      1.04720001	     -4.99999985	      0.00000000	      0.00000000	    -29.12557474	      2.95413974	     -2.09753325	     -2.20708108	    -31.67198851	     -0.74927773	    121.94192127	     87.98688513	      0.00000000	      0.00000000	     -0.28591589	    -28.61440936	     -5.43104471	    117.93675606	     89.38303780	      0.00000000	      0.00000000
     22.33000000	     15.72564501	     -1.04695168	      3.52131116	     -0.85196323	      0.57833889	      0.28648323	     45.00000012	     -9.99999999	      0.00000000	     60.00014062	      1.04720001	     -4.99999985	      0.00000000	      0.00000000	     45.00000012	     -9.99999999	      0.00000000	     60.00014062	      1.04720001	     -4.99999985	      0.00000000	      0.00000000	    -29.03166609	      2.92500349	     -2.11054810	     -2.18815873	    -31.65909873	     -0.72917666	    121.96218308	     87.99077076	      0.00000000	      0.00000000	     -0.31179707	    -28.61067890	     -5.43974123	    117.93323625	     89.38325338	      0.00000000	      0.00000000
     22.33500000	     15.74633873	     -1.08343801	      3.53754673	     -0.85195752	      0.57835891	      0.28649815	     45.00000012	     -9.99999999	      0.00000000	     60.00014062	      1.04720001	     -4.99999985	      0.00000000	      0.00000000	     45.00000012	     -9.99999999	      0.00000000	     60.00014062	      1.04720001	     -4.99999985	      0.00000000	      0.00000000	    -29.05804126	      2.96441387	     -2.09708539	     -2.20741501	    -31.67705348	     -0.74053823	    121.96023956	     87.98396702	      0.00000000	      0.00000000	     -0.31297863	    -28.60927584	     -5.45039890	    117.96458450	     89.38349325	      0.00000000	      0.00000000
     22.34000000	     15.74910452	     -1.06675200	      3.52627359	     -0.85199841	      0.57837102	      0.28648797	     45.00000012	     -9.99999999	      0.00000000	     60.00014062	      1.04720001	     -4.99999985	      0.00000000	      0.00000000	     45.00000012	     -9.99999999	      0.00000000	     60.00014062	      1.04720001	     -4.99999985	      0.00000000	      0.00000000	    -29.07353054	      2.95045853	     -2.10686101	     -2.19871805	    -31.65381553	     -0.80284470	    121.99362842	     87.85011490	      0.00000000	      0.00000000	     -0.32231384	    -28.60475815	     -5.49395295	    117.93790369	     89.38997720	      0.00000000	      0.00000000
     22.34500000	     15.76844689	     -1.07601657	      3.53199712	     -0.85196050	      0.57838213	      0.28647030	     45.00000012	     -9.99999999	      0.00000000	     60.00014062	      1.04720001	     -4.99999985	      0.00000000	      0.00000000	     45.00000012	     -9.99999999	      0.00000000	     60.00014062	      1.04720001	     -4.99999985	      0.00000000	      0.00000000	    -29.09184965	      2.96525155	     -2.09372810	     -2.22995715	    -31.66848457	     -0.81666608	    121.99110937	     87.93184114	      0.00000000	      0.00000000	     -0.31622171	    -28.60698292	     -5.46010374	    117.96545530	     89.38367972	      0.00000000	      0.00000000
     22.35000000	     15.75504643	     -1.07269226	      3.53332217	     -0.85200847	      0.57834763	      0.28644370	     45.00000012	     -9.99999999	      0.00000000	     60.00014062	      1.04720001	     -4.99999985	      0.00000000	      0.00000000	     45.00000012	     -9.99999999	      0.00000000	     60.00014062	      1.04720001	     -4.99999985	      0.00000000	      0.00000000	    -29.08558380	      2.96737895	     -2.11305395	     -2.19351763	    -31.67777981	     -0.77494532	    121.99545083	     87.93167992	      0.00000000	      0.00000000	     -0.33629519	    -28.60290238	     -5.48925685	    117.98966584	     89.38356993	      0.00000000	      0.00000000
